<mxfile host="app.diagrams.net" modified="2020-09-09T05:05:15.640Z" agent="5.0 (Windows NT 10.0; Win64; x64) AppleWebKit/537.36 (KHTML, like Gecko) Chrome/84.0.4147.125 Safari/537.36" etag="YH3gC7lpc5KY4zfaNPMe" version="13.6.9" type="github">
  <diagram id="T8AR-Nbdc-Vkwgvff9if" name="Page-1">
    <mxGraphModel dx="839" dy="663" grid="1" gridSize="10" guides="1" tooltips="1" connect="1" arrows="1" fold="1" page="1" pageScale="1" pageWidth="827" pageHeight="1169" math="0" shadow="0">
      <root>
        <mxCell id="0" />
        <mxCell id="1" parent="0" />
        <mxCell id="ENgVsPBk0OFofMp8MSjg-9" style="edgeStyle=orthogonalEdgeStyle;rounded=0;orthogonalLoop=1;jettySize=auto;html=1;entryX=0;entryY=0.5;entryDx=0;entryDy=0;" edge="1" parent="1" source="ENgVsPBk0OFofMp8MSjg-1" target="ENgVsPBk0OFofMp8MSjg-4">
          <mxGeometry relative="1" as="geometry" />
        </mxCell>
        <mxCell id="ENgVsPBk0OFofMp8MSjg-1" value="docker" style="rounded=0;whiteSpace=wrap;html=1;" vertex="1" parent="1">
          <mxGeometry x="50" y="60" width="120" height="60" as="geometry" />
        </mxCell>
        <mxCell id="ENgVsPBk0OFofMp8MSjg-10" style="edgeStyle=orthogonalEdgeStyle;rounded=0;orthogonalLoop=1;jettySize=auto;html=1;entryX=0;entryY=0.5;entryDx=0;entryDy=0;" edge="1" parent="1" source="ENgVsPBk0OFofMp8MSjg-4" target="ENgVsPBk0OFofMp8MSjg-5">
          <mxGeometry relative="1" as="geometry" />
        </mxCell>
        <mxCell id="ENgVsPBk0OFofMp8MSjg-4" value="github" style="rounded=0;whiteSpace=wrap;html=1;" vertex="1" parent="1">
          <mxGeometry x="230" y="60" width="120" height="60" as="geometry" />
        </mxCell>
        <mxCell id="ENgVsPBk0OFofMp8MSjg-5" value="circle-ci" style="rounded=0;whiteSpace=wrap;html=1;" vertex="1" parent="1">
          <mxGeometry x="414" y="60" width="120" height="60" as="geometry" />
        </mxCell>
        <mxCell id="ENgVsPBk0OFofMp8MSjg-7" value="vscode" style="rounded=0;whiteSpace=wrap;html=1;" vertex="1" parent="1">
          <mxGeometry x="70" y="100" width="80" height="40" as="geometry" />
        </mxCell>
        <mxCell id="ENgVsPBk0OFofMp8MSjg-11" value="vue" style="rounded=0;whiteSpace=wrap;html=1;" vertex="1" parent="1">
          <mxGeometry x="100" y="130" width="60" height="40" as="geometry" />
        </mxCell>
        <mxCell id="ENgVsPBk0OFofMp8MSjg-12" value="python&lt;br&gt;javascript" style="rounded=0;whiteSpace=wrap;html=1;" vertex="1" parent="1">
          <mxGeometry x="70" y="170" width="60" height="40" as="geometry" />
        </mxCell>
        <mxCell id="ENgVsPBk0OFofMp8MSjg-6" value="django" style="rounded=0;whiteSpace=wrap;html=1;" vertex="1" parent="1">
          <mxGeometry x="50" y="130" width="60" height="40" as="geometry" />
        </mxCell>
      </root>
    </mxGraphModel>
  </diagram>
</mxfile>
